<?xml version="1.0" encoding="UTF-8"?>
<svg width="56px" height="52px" viewBox="0 0 56 52" version="1.1" xmlns="http://www.w3.org/2000/svg" xmlns:xlink="http://www.w3.org/1999/xlink">
    <!-- Generator: Sketch 46.2 (44496) - http://www.bohemiancoding.com/sketch -->
    <title>chat</title>
    <desc>Created with Sketch.</desc>
    <defs>
        <filter x="-35.0%" y="-25.0%" width="170.0%" height="170.0%" filterUnits="objectBoundingBox" id="filter-1">
            <feOffset dx="0" dy="4" in="SourceAlpha" result="shadowOffsetOuter1"></feOffset>
            <feGaussianBlur stdDeviation="4" in="shadowOffsetOuter1" result="shadowBlurOuter1"></feGaussianBlur>
            <feColorMatrix values="0 0 0 0 0   0 0 0 0 0   0 0 0 0 0  0 0 0 0.5 0" type="matrix" in="shadowBlurOuter1" result="shadowMatrixOuter1"></feColorMatrix>
            <feMerge>
                <feMergeNode in="shadowMatrixOuter1"></feMergeNode>
                <feMergeNode in="SourceGraphic"></feMergeNode>
            </feMerge>
        </filter>
    </defs>
    <g id="Page-1" stroke="none" stroke-width="1" fill="none" fill-rule="evenodd">
        <g id="Desktop-HD" transform="translate(-1352.000000, -776.000000)">
            <g id="chat" filter="url(#filter-1)" transform="translate(1360.000000, 780.000000)">
                <circle id="Oval" fill-opacity="0.75999999" fill="#031F43" cx="20" cy="20" r="20"></circle>
                <g id="Group" transform="translate(10.000000, 13.000000)" stroke="#FFFFFF" stroke-width="1.29999995">
                    <path d="M13.7347415,11.5978374 C14.4255191,12.0760764 15.0131525,12.4585551 15.4976417,12.7452733 C16.4800755,13.3266725 17.0396859,13.5146314 17.1764728,13.3091499 C16.5443835,12.9532092 16.0921923,12.4484382 15.8198991,11.7948369 C15.7076898,11.5254944 15.6030611,11.0654606 15.5060129,10.4147356 C16.7570806,9.31425445 17.5087639,7.90275529 17.5087639,6.36363636 C17.5087639,2.84909705 13.5892936,0 8.75438196,0 C3.91947031,0 0,2.84909705 0,6.36363636 C0,9.87817568 3.91947031,12.7272727 8.75438196,12.7272727 C10.6047017,12.7272727 12.3209468,12.3099964 13.7347415,11.5978374 Z" id="Combined-Shape"></path>
                </g>
            </g>
        </g>
    </g>
</svg>